Coordinates
version=1
nRows=14
nColumns=40
inDegrees=yes

Units are S.I. units (second, meters, Newtons, ...)
Angles are in degrees.

endheader
time	pelvis_tilt	pelvis_list	pelvis_rotation	pelvis_tx	pelvis_ty	pelvis_tz	hip_flexion_r	hip_adduction_r	hip_rotation_r	knee_angle_r	knee_angle_r_beta	ankle_angle_r	subtalar_angle_r	mtp_angle_r	hip_flexion_l	hip_adduction_l	hip_rotation_l	knee_angle_l	knee_angle_l_beta	ankle_angle_l	subtalar_angle_l	mtp_angle_l	lumbar_extension	lumbar_bending	lumbar_rotation	arm_flex_r	arm_add_r	arm_rot_r	elbow_flex_r	pro_sup_r	wrist_flex_r	wrist_dev_r	arm_flex_l	arm_add_l	arm_rot_l	elbow_flex_l	pro_sup_l	wrist_flex_l	wrist_dev_l
      0.00000000	     -6.54049808	     -3.11313635	      4.32189081	     -1.28311327	      0.93830879	      1.50695155	     18.88289224	     -4.27398658	    -16.22296745	    -22.69337963	     -0.39607419	      3.39588271	     -2.19222001	     -5.55351716	     16.65960881	      7.74561659	      1.07417969	    -58.04454074	     -1.01306835	      3.76537244	     16.24060972	      6.87106222	      0.97185868	      5.08137142	     -5.25599469	     -4.28163678	    -14.24134943	    -28.54887823	     19.86926744	     89.95437384	      0.00000000	      0.00000000	      2.45135809	      9.60119896	      4.36053472	     45.09173158	     89.95437384	      0.00000000	      0.00000000
      0.01000000	     -6.29237964	     -3.08041028	      4.63732447	     -1.27403975	      0.94083413	      1.51064875	     17.31812991	     -3.94657882	    -16.90145260	    -21.47584694	     -0.37482424	      3.50306041	     -1.56768571	     -5.63747595	     17.95488353	      7.66773779	      1.49168273	    -59.10325445	     -1.03154639	      4.33579313	     17.12463982	      7.13417050	      0.68480728	      5.02784067	     -5.00791903	     -3.76987245	    -14.40046281	    -27.88458412	     19.56225536	     89.95437384	      0.00000000	      0.00000000	      2.42182280	      9.50090456	      6.20720541	     41.93973040	     89.95437384	      0.00000000	      0.00000000
      0.02000000	     -6.17056386	     -2.70226761	      4.64865789	     -1.26508793	      0.94306037	      1.51463669	     16.00706805	     -3.93377266	    -17.25273136	    -20.45787502	     -0.35705728	      3.96173218	     -1.13943001	     -5.72192585	     19.16983885	      7.24915296	      2.25737271	    -59.80720627	     -1.04383267	      4.86595937	     17.45946923	      7.20049014	      0.45424399	      4.58715812	     -4.39766968	     -3.24914703	    -14.48582212	    -27.20738448	     19.24784492	     89.95437384	      0.00000000	      0.00000000	      2.35972870	      9.73350337	      7.37143215	     39.01354791	     89.95437384	      0.00000000	      0.00000000
      0.03000000	     -6.06879455	     -2.27363552	      4.49685077	     -1.25648280	      0.94507016	      1.51850044	     14.82340850	     -4.00174946	    -17.53195380	    -19.52624892	     -0.34079733	      4.08388777	     -0.29080007	     -5.79106829	     20.32137069	      6.82079039	      3.23218245	    -60.23869679	     -1.05136360	      5.50239724	     17.57656315	      7.37595478	      0.17022043	      4.12096570	     -3.72892045	     -2.69756167	    -14.66212431	    -26.24686135	     19.11293250	     89.95437384	      0.00000000	      0.00000000	      2.41259728	      9.79035382	      9.29040063	     35.84359425	     89.95437384	      0.00000000	      0.00000000
      0.04000000	     -5.80072281	     -1.74074926	      4.35470464	     -1.24761818	      0.94705910	      1.52236012	     13.48377460	     -4.12446079	    -17.42552719	    -18.71212742	     -0.32658823	      4.55059910	      0.39958805	     -5.90400265	     21.21174122	      6.33461303	      4.38806661	    -60.38685496	     -1.05394944	      5.87735661	     17.62406195	      7.73016239	     -0.28827548	      3.51663969	     -3.15648064	     -2.10510317	    -14.82985357	    -24.93260532	     19.05088348	     89.95437384	      0.00000000	      0.00000000	      2.27251984	      9.94416796	     11.50179663	     33.00929759	     89.95437384	      0.00000000	      0.00000000
      0.05000000	     -5.15719073	     -1.32729163	      4.38648363	     -1.23724935	      0.94956781	      1.52601706	     11.38620779	     -4.18990581	    -18.28534250	    -17.46858726	     -0.30488436	      4.88600834	      1.75614017	     -6.23538533	     21.42826084	      5.98212204	      5.38968073	    -59.99492717	     -1.04710901	      6.52065157	     17.58589627	      8.81868971	     -0.98034886	      3.04517297	     -2.93434555	     -1.61432599	    -15.07420948	    -22.81940968	     19.11027746	     89.95437384	      0.00000000	      0.00000000	      1.82852049	     10.19488076	     13.91915417	     30.38613525	     89.95437384	      0.00000000	      0.00000000
      0.06000000	     -5.08495917	     -0.51377997	      3.93469385	     -1.22858912	      0.95094520	      1.52983991	     10.41609350	     -4.72579838	    -18.28036267	    -16.88736251	     -0.29474008	      5.33223236	      2.73453547	     -6.63417775	     22.27389318	      5.16396704	      6.80275418	    -59.41737721	     -1.03702887	      6.87119795	     17.67887220	      9.64673607	     -1.26208755	      2.12232776	     -2.08265694	     -0.96728776	    -15.22039904	    -21.68432510	     19.05340048	     89.95437384	      0.00000000	      0.00000000	      1.64069894	     10.59558742	     15.83138130	     27.63721090	     89.95437384	      0.00000000	      0.00000000
      0.07000000	     -4.91093704	     -0.05822640	      3.76742738	     -1.21882803	      0.95228812	      1.53377023	      9.06277306	     -4.79367656	    -18.53566192	    -15.87888968	     -0.27713891	      5.55254133	      3.38854254	     -6.79036036	     23.00017540	      4.80639504	      8.02161947	    -58.67884255	     -1.02413900	      7.06395129	     17.53626318	      9.90569777	     -1.47961413	      1.54783467	     -1.44103334	     -0.41623396	    -15.28101495	    -21.10227814	     18.92795406	     89.95437384	      0.00000000	      0.00000000	      1.27399765	     11.26295342	     16.75763602	     25.02825898	     89.95437384	      0.00000000	      0.00000000
      0.08000000	     -4.35153494	      0.59487841	      3.39674670	     -1.20886323	      0.95405780	      1.53752272	      7.34374135	     -5.12896364	    -18.90275094	    -14.99724189	     -0.26175125	      5.80242888	      4.43262696	     -7.12231914	     23.03788976	      4.26682632	      9.47596218	    -57.40060943	     -1.00182963	      7.29674064	     17.43862123	     10.31059418	     -2.17012738	      0.79698772	     -0.71227260	      0.23573843	    -15.39172131	    -20.20234340	     18.90377016	     89.95437384	      0.00000000	      0.00000000	      0.91679096	     11.75349097	     18.85717185	     22.61671218	     89.95437384	      0.00000000	      0.00000000
      0.09000000	     -4.42374907	      0.83255994	      3.22258809	     -1.19986130	      0.95421189	      1.54128792	      6.53683856	     -5.05110367	    -19.34691934	    -14.44397984	     -0.25209501	      6.17916045	      4.60219401	     -7.22679345	     24.14631792	      4.10083754	     10.59402581	    -56.48122790	     -0.98578339	      7.50041388	     17.43994418	     10.36020144	     -2.16715044	      0.43664099	     -0.17745590	      0.87243266	    -15.46208736	    -19.87988056	     18.95240211	     89.95437384	      0.00000000	      0.00000000	      0.02660513	     12.54337717	     19.19543827	     21.05075098	     89.95437384	      0.00000000	      0.00000000
      0.10000000	     -3.64860923	      1.90901913	      2.65814459	     -1.18981022	      0.95600058	      1.54447706	      4.67408008	     -6.02114486	    -19.76629355	    -13.74498672	     -0.23989527	      6.66943877	      6.95509560	     -8.09771031	     23.61446908	      3.10261824	     12.41844222	    -54.45732071	     -0.95045955	      7.64164669	     17.26957741	     11.02490813	     -3.11012457	     -0.73829054	      0.51902751	      1.58524793	    -15.68974469	    -18.20313066	     19.10759656	     89.95437384	      0.00000000	      0.00000000	     -0.21551318	     13.00687187	     22.18628552	     18.43683489	     89.95437384	      0.00000000	      0.00000000
      0.11000000	     -3.55726361	      2.58990327	      2.25105910	     -1.18051789	      0.95615018	      1.54774944	      3.82162325	     -6.60585564	    -20.23198484	    -13.49273591	     -0.23549267	      7.09603162	      8.35251205	     -9.91689880	     24.14336219	      2.43760623	     13.88156100	    -52.68098527	     -0.91945665	      7.80211401	     17.09874303	     11.76971527	     -3.26395891	     -1.54671238	      1.15188732	      2.26017832	    -15.83073458	    -17.35960814	     19.22957151	     89.95437384	      0.00000000	      0.00000000	     -0.86951322	     13.72667441	     23.28869929	     16.46575664	     89.95437384	      0.00000000	      0.00000000
      0.12000000	     -3.51252150	      2.94667612	      1.99904002	     -1.17109227	      0.95600458	      1.55114426	      2.82480708	     -6.63273610	    -20.14046033	    -12.80617361	     -0.22350989	      7.43306702	      8.52734649	    -10.15592081	     24.72258591	      2.09083422	     15.05279783	    -50.77258053	     -0.88614870	      7.83301971	     16.69892885	     11.88844226	     -3.33938967	     -2.03174919	      1.71297753	      2.92911068	    -15.90997718	    -17.02720727	     19.30181156	     89.95437384	      0.00000000	      0.00000000	     -1.73593430	     14.52033923	     23.61365192	     14.89319134	     89.95437384	      0.00000000	      0.00000000
      0.13000000	     -2.95349886	      3.35210120	      1.73563864	     -1.16069716	      0.95650100	      1.55448345	      1.15713876	     -6.74994821	    -20.51211079	    -12.04472236	     -0.21022006	      7.71150087	      9.05079630	    -10.58924725	     24.52100845	      1.77144721	     16.62462893	    -48.42849530	     -0.84523669	      7.79984276	     16.32648599	     12.01185525	     -3.91790105	     -2.55630828	      2.16697344	      3.57484091	    -15.97825837	    -16.60566550	     19.52450178	     89.95437384	      0.00000000	      0.00000000	     -2.73991312	     15.24699508	     24.40828146	     13.59134057	     89.95437384	      0.00000000	      0.00000000
